<svg width="30" height="25" viewBox="0 0 30 25" fill="none" xmlns="http://www.w3.org/2000/svg">
<path d="M2.8125 0.5625C1.23047 0.5625 0 1.85156 0 3.375C0 4.95703 1.23047 6.1875 2.8125 6.1875C4.33594 6.1875 5.625 4.95703 5.625 3.375C5.625 1.85156 4.33594 0.5625 2.8125 0.5625ZM2.8125 9.9375C1.23047 9.9375 0 11.2266 0 12.75C0 14.332 1.23047 15.5625 2.8125 15.5625C4.33594 15.5625 5.625 14.332 5.625 12.75C5.625 11.2266 4.33594 9.9375 2.8125 9.9375ZM2.8125 19.3125C1.23047 19.3125 0 20.6016 0 22.125C0 23.707 1.23047 24.9375 2.8125 24.9375C4.33594 24.9375 5.625 23.707 5.625 22.125C5.625 20.6016 4.33594 19.3125 2.8125 19.3125ZM29.0625 20.25H10.3125C9.78516 20.25 9.375 20.7188 9.375 21.1875V23.0625C9.375 23.5898 9.78516 24 10.3125 24H29.0625C29.5312 24 30 23.5898 30 23.0625V21.1875C30 20.7188 29.5312 20.25 29.0625 20.25ZM29.0625 1.5H10.3125C9.78516 1.5 9.375 1.96875 9.375 2.4375V4.3125C9.375 4.83984 9.78516 5.25 10.3125 5.25H29.0625C29.5312 5.25 30 4.83984 30 4.3125V2.4375C30 1.96875 29.5312 1.5 29.0625 1.5ZM29.0625 10.875H10.3125C9.78516 10.875 9.375 11.3438 9.375 11.8125V13.6875C9.375 14.2148 9.78516 14.625 10.3125 14.625H29.0625C29.5312 14.625 30 14.2148 30 13.6875V11.8125C30 11.3438 29.5312 10.875 29.0625 10.875Z" fill="black"/>
</svg>
